<?xml version="1.0" encoding="UTF-8"?>
<!DOCTYPE svg PUBLIC "-//W3C//DTD SVG 1.1//EN" "http://www.w3.org/Graphics/SVG/1.1/DTD/svg11.dtd">
<!-- Creator: CorelDRAW 2021 (64 Bit) -->
<svg xmlns="http://www.w3.org/2000/svg" xml:space="preserve" width="681.46mm" height="987.391mm" version="1.1" style="shape-rendering:geometricPrecision; text-rendering:geometricPrecision; image-rendering:optimizeQuality; fill-rule:evenodd; clip-rule:evenodd"
viewBox="0 0 61863.34 89636.01"
 xmlns:xlink="http://www.w3.org/1999/xlink"
 xmlns:xodm="http://www.corel.com/coreldraw/odm/2003">
 <defs>
  <style type="text/css">
   <![CDATA[
    .fil0 {fill:#D13F40;fill-rule:nonzero}
   ]]>
  </style>
 </defs>
 <g id="Camada_x0020_1">
  <metadata id="CorelCorpID_0Corel-Layer"/>
  <path class="fil0" d="M31503.88 81874.97l-14282.91 0 22789.47 -47063.39 13791.16 0c-269.53,1344.32 -779.81,2952.1 -1745.83,5085.92l-20551.89 41977.46zm-23407.32 -47063.39l23291.78 0 -8744.9 18059.85 97.18 -257.74c-7731.08,-2922.12 -13269.78,-9811.21 -14644.06,-17802.1zm22834.68 -27050.54c11454.49,0 20992.54,8355.16 22844.03,19290.02l-45687.9 0c1851.49,-10934.86 11390.23,-19290.02 22843.86,-19290.02zm30932.1 23170.36c0,-17055.38 -13876.03,-30931.41 -30932.1,-30931.41 -17055.21,0 -30931.24,13876.03 -30931.24,30931.41 0,12565.84 7756.72,24011.66 19371.26,28696.6l-11833.14 24436.39c-581.83,1201.94 -504.75,2620.21 204.57,3751.82 709.49,1132.31 1951.78,1819.79 3287.61,1819.79l22893.92 0c1481.85,0 2834.13,-843.9 3484.9,-2174.71l21649.37 -44220.07c17.15,-34.29 29.28,-69.11 44.69,-103.93l4.16 1.73c2756.01,-6068.91 2756.01,-9472.57 2756.01,-12207.63z"/>
 </g>
</svg>
